<svg xmlns="http://www.w3.org/2000/svg" viewBox="0 0 141.73 105.4"><defs><style>.cls-1{fill:#fff;}</style></defs><g id="レイヤー_2" data-name="レイヤー 2"><g id="レイヤー_1-2" data-name="レイヤー 1"><path class="cls-1" d="M134.29,77.57,75,43.22V40.66a8.1,8.1,0,0,1,4.34-7.07A17.87,17.87,0,1,0,53,17.87a4.16,4.16,0,0,0,8.31,0,9.57,9.57,0,0,1,9.93-9.56,9.56,9.56,0,0,1,4.17,18,16.41,16.41,0,0,0-8.7,14.38v2.56L7.44,77.57a14.92,14.92,0,0,0,7.48,27.83H126.81a14.92,14.92,0,0,0,7.48-27.83ZM126.81,97.1H14.92a6.62,6.62,0,0,1-3.31-12.35L70.87,50.41l59.26,34.34a6.62,6.62,0,0,1-3.32,12.35Z"/></g></g></svg>