<svg xmlns="http://www.w3.org/2000/svg" viewBox="0 0 141.73 105.42"><defs><style>.cls-1{fill:#fff;}</style></defs><g id="レイヤー_2" data-name="レイヤー 2"><g id="レイヤー_1-2" data-name="レイヤー 1"><g id="レイヤー_2-2" data-name="レイヤー 2"><g id="レイヤー_1-2-2" data-name="レイヤー 1-2"><path class="cls-1" d="M134.29,77.59,75,43.24V40.68a8.11,8.11,0,0,1,4.34-7.07A17.87,17.87,0,1,0,53,17.89a4.16,4.16,0,0,0,8.31,0,9.58,9.58,0,0,1,9.58-9.57h.35a9.56,9.56,0,0,1,4.17,18,16.41,16.41,0,0,0-8.7,14.38v2.56L7.44,77.59a14.92,14.92,0,0,0,7.48,27.83H126.81a14.92,14.92,0,0,0,7.48-27.83Zm-7.48,19.53H14.92a6.62,6.62,0,0,1-3.31-12.35L70.87,50.43l59.26,34.34a6.62,6.62,0,0,1-3.32,12.35Z"/></g></g></g></g></svg>