<svg xmlns="http://www.w3.org/2000/svg" viewBox="0 0 427.77 187.13"><defs><style>.cls-1{fill:#d8bb7c;}</style></defs><g id="レイヤー_2" data-name="レイヤー 2"><g id="レイヤー_1-2" data-name="レイヤー 1"><path class="cls-1" d="M268.79,77.57,209.52,43.22V40.66a8.1,8.1,0,0,1,4.34-7.07A17.87,17.87,0,1,0,187.5,17.87a4.15,4.15,0,0,0,8.3,0,9.58,9.58,0,0,1,9.94-9.56,9.56,9.56,0,0,1,4.16,18,16.42,16.42,0,0,0-8.69,14.38v2.56L141.94,77.57a14.92,14.92,0,0,0,7.48,27.83H261.31a14.92,14.92,0,0,0,7.48-27.83ZM261.31,97.1H149.42a6.62,6.62,0,0,1-3.32-12.35l59.26-34.34,59.26,34.34a6.62,6.62,0,0,1-3.31,12.35Z"/><path class="cls-1" d="M10.17,155.17h6.58l10.17,31.39H21l-4.72-16.69c-1-3.31-2-6.88-2.81-10.35h-.19c-.88,3.47-1.82,7-2.77,10.35L5.71,186.56H0ZM6,173.67H20.75v4.41H6Z"/><path class="cls-1" d="M31.91,181.86h7.56v-22H31.91v-4.7h20.7v4.7H45.05v22h7.56v4.7H31.91Z"/><path class="cls-1" d="M96.28,178V157.06H88.41v-4.4h13.42v25.6c0,3.15,1.86,4.34,4.24,4.34a10.38,10.38,0,0,0,4-.91l1.29,4.1a16.77,16.77,0,0,1-6.68,1.34C99.21,187.13,96.28,183.76,96.28,178Z"/><path class="cls-1" d="M128.48,167.38H118.3V163H134v23.58h-5.55ZM127,155a4,4,0,0,1,7.89,0,4,4,0,0,1-7.89,0Z"/><path class="cls-1" d="M147.38,152.66h5.55v21.2h.19L163.73,163h6.16l-17,17.42v6.16h-5.55ZM156.83,175l3.24-3.51,10.82,15.09h-6.07Z"/><path class="cls-1" d="M174.8,174.74A12,12,0,0,1,187,162.4c7,0,10.94,4.67,10.94,11.2a17.7,17.7,0,0,1-.25,2.78H178.77v-3.91h15.29L193,173.69c0-4.65-2.19-7-5.88-7-3.89,0-6.9,2.81-6.9,8.07,0,5.48,3.3,8.1,8.21,8.1a12.91,12.91,0,0,0,6.61-1.93l1.89,3.44a17.12,17.12,0,0,1-9.23,2.78C180.48,187.13,174.8,182.59,174.8,174.74Z"/><path class="cls-1" d="M233.89,163.24l6.65-.26h14.3v4.4h-21Zm6.48-1.54c0-5.56,3.08-9.62,10-9.62a19.78,19.78,0,0,1,7,1.31l-1.14,4.11a13,13,0,0,0-5.2-1c-3.59,0-5.15,1.82-5.15,5.13v24.95h-5.52Z"/><path class="cls-1" d="M261.64,180.23c0-5.29,4.65-7.92,16.29-8.74-.2-2.64-1.77-4.62-5.61-4.62a16.37,16.37,0,0,0-7.7,2.5l-2.06-3.68a21.66,21.66,0,0,1,10.79-3.29c6.54,0,10.13,3.64,10.13,10.2v14h-4.56l-.42-2.93h-.16c-2.48,1.92-5.64,3.5-8.8,3.5C264.94,187.13,261.64,184.31,261.64,180.23Zm16.29-.32V175c-8.47.55-10.91,2.29-10.91,4.84,0,2.07,1.84,3,4.17,3S275.75,181.66,277.93,179.91Z"/><path class="cls-1" d="M290,183.48l2.43-3.53a17.42,17.42,0,0,0,9.86,3c3.27,0,4.8-1.25,4.8-2.81s-1-2.41-6.53-3.54c-6.29-1.32-9.08-3.55-9.08-7.14,0-4.1,3.73-7,10.33-7a18.49,18.49,0,0,1,9.87,3.12l-2.56,3.41a14.5,14.5,0,0,0-7.8-2.36c-3.06,0-4.32,1.18-4.32,2.62,0,1.66,1.73,2.24,6.14,3.2,7.54,1.66,9.5,3.67,9.5,7.41,0,4.06-3.91,7.33-11.07,7.33A21.3,21.3,0,0,1,290,183.48Z"/><path class="cls-1" d="M319.81,152.66h5.55v8.75l-.33,5h.17c2.05-2.2,4.7-4,8.28-4,5.43,0,7.89,3.48,7.89,9.55v14.61h-5.56V172.68c0-3.79-1.21-5.52-4.39-5.52-2.33,0-3.9,1.13-6.06,3.32v16.08h-5.55Z"/><path class="cls-1" d="M358.88,167.38H348.69V163h15.74v23.58h-5.55ZM357.35,155a3.94,3.94,0,0,1,7.88,0,3.95,3.95,0,0,1-7.88,0Z"/><path class="cls-1" d="M376,174.8c0-7.88,5.62-12.4,11.84-12.4s11.83,4.52,11.83,12.4-5.62,12.33-11.83,12.33S376,182.62,376,174.8Zm18,0c0-4.74-2.31-7.87-6.15-7.87s-6.16,3.13-6.16,7.87,2.31,7.8,6.16,7.8S394,179.51,394,174.8Z"/><path class="cls-1" d="M406.21,163h4.53l.43,3.55h.19c2.25-2.28,4.91-4.13,8.5-4.13,5.45,0,7.91,3.48,7.91,9.55v14.61h-5.56V172.68c0-3.79-1.21-5.52-4.39-5.52-2.33,0-3.9,1.13-6.06,3.32v16.08h-5.55Z"/></g></g></svg>