<svg xmlns="http://www.w3.org/2000/svg" viewBox="0 0 512 450"><defs><style>.cls-1{fill:#fff;}</style></defs><g id="レイヤー_2" data-name="レイヤー 2"><g id="レイヤー_1-2" data-name="レイヤー 1"><path class="cls-1" d="M166,300H437a15,15,0,0,0,14.42-10.88l60-210A15,15,0,0,0,497,60H131.37L120.65,11.75A15,15,0,0,0,106,0H15a15,15,0,0,0,0,30H94l54.17,243.75A45,45,0,0,0,166,360H437a15,15,0,0,0,0-30H166a15,15,0,0,1,0-30Z"/><path class="cls-1" d="M151,405a45,45,0,1,0,45-45A45,45,0,0,0,151,405Z"/><path class="cls-1" d="M362,405a45,45,0,1,0,45-45A45,45,0,0,0,362,405Z"/></g></g></svg>