<svg xmlns="http://www.w3.org/2000/svg" viewBox="0 0 512 380.77"><defs><style>.cls-1{fill:#d8bb7c;}</style></defs><g id="レイヤー_2" data-name="レイヤー 2"><g id="レイヤー_1-2" data-name="レイヤー 1"><path class="cls-1" d="M485.12,280.2,271,156.12v-9.23a29.29,29.29,0,0,1,15.68-25.56A64.55,64.55,0,0,0,258.5.05a64.53,64.53,0,0,0-67,64.49,15,15,0,0,0,30,0A34.53,34.53,0,0,1,257.36,30,34.55,34.55,0,0,1,272.4,95,59.23,59.23,0,0,0,241,146.89v9.23L26.88,280.2a53.92,53.92,0,0,0,27,100.57H458.09a53.92,53.92,0,0,0,27-100.57Zm-27,70.57H53.91a23.92,23.92,0,0,1-12-44.61L256,182.1,470.08,306.16a23.92,23.92,0,0,1-12,44.61Z"/></g></g></svg>